<?xml version="1.0" encoding="UTF-8" standalone="no"?>
<svg
   xmlns:dc="http://purl.org/dc/elements/1.1/"
   xmlns:cc="http://creativecommons.org/ns#"
   xmlns:rdf="http://www.w3.org/1999/02/22-rdf-syntax-ns#"
   xmlns:svg="http://www.w3.org/2000/svg"
   xmlns="http://www.w3.org/2000/svg"
   xmlns:sodipodi="http://sodipodi.sourceforge.net/DTD/sodipodi-0.dtd"
   xmlns:inkscape="http://www.inkscape.org/namespaces/inkscape"
   inkscape:version="1.0beta2 (2b71d25, 2019-12-03)"
   sodipodi:docname="logo.svg"
   width="142.83722mm"
   height="142.83722mm"
   viewBox="0 0 142.83722 142.83722"
   version="1.1"
   id="svg8">
  <sodipodi:namedview
     inkscape:current-layer="svg8"
     inkscape:window-maximized="0"
     inkscape:window-y="32"
     inkscape:window-x="1361"
     inkscape:cy="302.19711"
     inkscape:cx="322.29445"
     inkscape:zoom="0.83154035"
     showgrid="false"
     id="namedview15"
     inkscape:window-height="971"
     inkscape:window-width="1776"
     inkscape:pageshadow="2"
     inkscape:pageopacity="0"
     guidetolerance="10"
     gridtolerance="10"
     objecttolerance="10"
     borderopacity="1"
     inkscape:document-rotation="0"
     bordercolor="#666666"
     pagecolor="#ffffff" />
  <defs
     id="defs2" />
  <metadata
     id="metadata5">
    <rdf:RDF>
      <cc:Work
         rdf:about="">
        <dc:format>image/svg+xml</dc:format>
        <dc:type
           rdf:resource="http://purl.org/dc/dcmitype/StillImage" />
        <dc:title></dc:title>
      </cc:Work>
    </rdf:RDF>
  </metadata>
  <g
     id="layer1"
     transform="translate(-20.694198,-115.99854)">
    <path
       inkscape:connector-curvature="0"
       style="fill:#000000;stroke-width:0.264583"
       d="m 81.416072,226.26964 c -1.77503,-0.58984 -2.67057,-1.16327 -3.77341,-2.41617 -2.3632,-2.68473 -3.93388,-6.90598 -4.82726,-12.97341 -0.62567,-4.24927 -1.10575,-13.68487 -1.03655,-20.37291 0.0286,-2.7649 -0.0366,-5.35451 -0.145,-5.75469 -0.28583,-1.05559 0.0143,-1.91518 0.79249,-2.26975 1.57912,-0.71949 2.81928,-0.041 3.28182,1.79536 0.12985,0.51557 0.31506,3.55678 0.41156,6.75824 0.33822,11.21994 0.54819,15.87749 0.72871,16.16435 0.10016,0.15914 0.30829,1.88555 0.46254,3.83646 0.46548,5.88773 1.5546,9.1457 3.89309,11.64573 1.80243,1.92695 3.85234,2.11185 4.77126,0.43036 0.41246,-0.75474 0.478,-1.81122 0.55371,-8.92586 0.0521,-4.89358 -0.0314,-9.0591 -0.21199,-10.58333 -0.16382,-1.38245 -0.40453,-5.07339 -0.53491,-8.20208 -0.13038,-3.1287 -0.31979,-7.13015 -0.42091,-8.89212 -0.17497,-3.04896 -0.15649,-3.23092 0.3829,-3.77031 0.837,-0.83699 2.26528,-0.76099 3.19637,0.1701 0.70884,0.70884 0.72784,0.7968 0.50016,2.3151 -0.33542,2.23677 -0.26875,7.97257 0.17673,15.20431 0.63727,10.34518 0.79183,18.14688 0.40126,20.25354 -0.72872,3.93051 -2.37727,5.60178 -5.74208,5.82123 -1.1054,0.0721 -2.21133,-0.0184 -2.86049,-0.23415 z m -26.473908,-0.81591 c -0.586156,-0.42832 -0.542267,1.42828 -0.428967,-18.14554 0.05631,-9.72847 -0.01646,-13.16135 -0.347675,-16.40417 -0.411824,-4.03188 -0.81711,-6.81261 -1.100601,-7.55137 -0.08031,-0.20928 0.224369,-0.74276 0.690277,-1.20867 0.807651,-0.80765 0.891344,-0.82993 2.645727,-0.70441 2.24122,0.16036 4.748731,1.27325 6.17763,2.74177 0.553426,0.56878 1.445227,1.91858 1.981787,2.99956 0.91241,1.8382 0.98197,2.15287 1.07468,4.86144 0.11155,3.25892 -0.31676,5.38334 -1.53417,7.60955 -0.953925,1.74439 -3.168395,4.01698 -4.941894,5.07162 l -1.454425,0.86489 0.214103,6.48229 c 0.117758,3.56526 0.214104,7.89195 0.214104,9.61486 0,2.97303 -0.03181,3.15832 -0.624623,3.63802 -0.738775,0.59782 -1.848895,0.65413 -2.565953,0.13016 z m 6.319554,-27.66525 c 0.792446,-1.64025 0.833588,-1.88185 0.836602,-4.91268 0.0031,-3.10777 -0.01704,-3.21864 -0.803225,-4.42726 -0.46773,-0.71904 -1.523354,-1.73913 -2.513541,-2.42893 l -1.707148,-1.18925 -0.08729,1.91235 c -0.04801,1.05179 0.04022,3.93641 0.196065,6.41027 0.155844,2.47385 0.300318,5.45042 0.321048,6.61458 0.02074,1.16417 0.10015,2.22505 0.17649,2.35751 0.248994,0.43206 2.726846,-2.56861 3.581003,-4.33659 z m 38.542894,27.58825 c -1.25577,-0.46174 -1.63162,-1.47643 -0.93863,-2.53408 1.06824,-1.63032 1.153378,-7.43014 0.24202,-16.48606 -0.26746,-2.65773 -0.41191,-6.40077 -0.39212,-10.1609 0.0293,-5.56308 -0.0131,-6.13137 -0.64672,-8.67357 -0.81939,-3.28748 -0.77708,-4.17537 0.23475,-4.92632 0.67805,-0.50321 1.10012,-0.55497 4.497918,-0.5516 3.68395,0.004 3.7776,0.0182 5.3434,0.83346 1.99071,1.03642 3.35973,2.43112 4.52729,4.61219 3.28752,6.14133 3.61913,19.02217 0.67996,26.41188 -0.95287,2.39572 -2.40125,5.06662 -3.75745,6.92897 -1.29375,1.7766 -3.89099,3.9606 -5.26583,4.42798 -0.91182,0.30998 -3.79782,0.38528 -4.524588,0.11805 z m 5.766138,-5.31526 c 1.60706,-1.56532 2.53766,-3.00869 3.68085,-5.70899 2.83656,-6.70019 3.09621,-17.92779 0.53509,-23.13832 -1.63808,-3.33264 -4.57533,-5.60181 -7.25109,-5.60181 h -0.8789 l 0.001,1.38907 c 0.002,1.74505 0.6898,12.7748 1.06077,16.99948 0.15334,1.74625 0.35232,6.47352 0.44219,10.50506 0.18588,8.33878 -0.002,7.90501 2.40986,5.55551 z m 28.53842,5.01911 c -0.36686,-0.40537 -0.43788,-1.13344 -0.43788,-4.48861 0,-3.6596 -0.0432,-4.02787 -0.50125,-4.27301 -0.55187,-0.29535 -5.02251,-1.07052 -6.18376,-1.07221 -0.92412,-0.001 -1.32354,0.81398 -2.0276,4.13898 -0.28187,1.33113 -0.79187,3.11707 -1.13334,3.96875 l -0.62085,1.5485 -1.03489,-0.0839 c -0.56919,-0.0462 -1.26212,-0.20552 -1.53985,-0.35415 -0.55584,-0.29748 -0.56151,-0.23642 0.32769,-3.53069 0.31423,-1.16417 0.91906,-3.84307 1.34405,-5.95313 4.04489,-20.0824 4.74598,-23.21269 6.04439,-26.9875 1.55554,-4.52238 2.41153,-5.82333 3.82757,-5.81722 1.91744,0.008 1.88431,-0.0476 2.24427,3.7831 0.18033,1.91913 0.49275,4.62043 0.69426,6.00287 1.00944,6.92514 1.23657,8.95005 1.4691,13.09688 0.13871,2.47385 0.49494,6.70057 0.79162,9.39271 0.29667,2.69213 0.54647,6.08319 0.5551,7.53568 0.0143,2.40607 -0.0357,2.68249 -0.56222,3.10885 -0.7847,0.63541 -2.67534,0.62619 -3.25641,-0.0159 z m -0.70246,-13.34098 c 0,-0.61865 -0.24068,-3.20826 -0.53484,-5.75468 -0.29416,-2.54642 -0.65724,-5.88001 -0.80686,-7.40798 -0.1496,-1.52797 -0.31586,-3.07578 -0.36944,-3.43959 -0.0536,-0.3638 -0.10722,-1.4056 -0.11919,-2.3151 -0.012,-0.90951 -0.12348,-1.65365 -0.2478,-1.65365 -0.31519,0 -1.18012,3.07959 -2.27321,8.09382 -0.82055,3.76403 -2.26325,11.86235 -2.26325,12.70433 0,0.429 2.10675,0.82892 4.56407,0.86641 l 2.05052,0.0313 z M 20.694198,201.89616 v -1.97245 l 2.711979,-1.90739 c 1.491589,-1.04907 3.375839,-2.39389 4.187223,-2.98849 0.811384,-0.59461 2.753912,-1.97407 4.31673,-3.06548 1.562817,-1.0914 3.518333,-2.46934 4.345589,-3.06208 0.827258,-0.59274 2.658881,-1.89387 4.070274,-2.8914 1.411394,-0.99754 2.517959,-1.89171 2.459035,-1.98706 -0.05892,-0.0953 0.04762,-0.17335 0.236756,-0.17335 0.544038,0 6.222435,-4.14789 6.053218,-4.42169 -0.08368,-0.13539 -0.02474,-0.16744 0.130976,-0.0712 0.155718,0.0962 2.525599,-1.42503 5.266402,-3.38059 2.7408,-1.95557 6.233433,-4.43869 7.761401,-5.51805 1.527971,-1.07937 4.426741,-3.14134 6.441721,-4.58218 2.01497,-1.44083 4.27716,-3.04403 5.02708,-3.56267 0.74992,-0.51864 5.4949,-3.88216 10.54441,-7.47448 5.0495,-3.59233 9.26013,-6.5315 9.35695,-6.5315 0.15621,0 4.16735,2.65875 6.764858,4.48403 3.15372,2.21614 14.10986,9.85263 16.10009,11.22187 1.29855,0.89337 2.87072,1.9815 3.49371,2.41806 2.35024,1.64692 17.90882,12.45767 20.19098,14.02953 1.30969,0.90206 4.22672,2.9266 6.48229,4.49898 2.25558,1.57239 5.2057,3.61585 6.55584,4.54105 4.32303,2.9624 9.70523,6.75129 10.05925,7.08138 0.23579,0.21985 0.3186,0.91825 0.26458,2.23131 l -0.0786,1.9113 -3.83645,-2.64578 c -2.11006,-1.45517 -4.31271,-2.99043 -4.8948,-3.41167 -0.58208,-0.42124 -6.95192,-4.8556 -14.1552,-9.85414 -15.8506,-10.99912 -16.49572,-11.44689 -20.57525,-14.28092 -9.68295,-6.72671 -18.17909,-12.62376 -20.115648,-13.96199 -1.20671,-0.83387 -3.08213,-2.14919 -4.16759,-2.92293 l -1.97358,-1.40679 -0.85949,0.59819 c -2.29022,1.59395 -13.71913,9.69672 -14.88241,10.5512 -1.25765,0.9238 -3.95288,2.83587 -7.27058,5.15795 -1.83232,1.28244 -13.315389,9.42077 -15.119607,10.71562 -2.190266,1.57191 -8.663263,6.17744 -15.618445,11.1125 -1.333074,0.94589 -2.970544,2.11093 -3.638821,2.58898 -0.668277,0.47805 -1.837723,1.29698 -2.598768,1.81985 -0.761045,0.52286 -1.308196,1.07286 -1.215891,1.22222 0.09357,0.1514 0.03898,0.19191 -0.123386,0.0916 -0.160168,-0.099 -1.339423,0.57452 -2.620568,1.49669 -6.166021,4.43831 -8.776209,6.27444 -8.919548,6.27444 -0.08617,0 -0.15668,-0.8876 -0.15668,-1.97244 z m 46.831254,-22.10464 c -0.42838,-0.42837 -0.52917,-0.88194 -0.52917,-2.38125 0,-1.01865 -0.009,-1.93841 -0.0198,-2.04391 -0.0109,-0.1055 0.0933,-0.22953 0.23156,-0.27562 0.13827,-0.0461 0.35556,0.96296 0.48286,2.24234 0.20942,2.10461 0.28645,2.33398 0.80887,2.40835 0.77967,0.111 1.02766,-0.49336 1.11944,-2.72804 0.0796,-1.93889 0.1579,-2.24896 0.56773,-2.24896 0.29787,0 0.29979,1.74722 0.004,3.54963 -0.31401,1.91278 -1.5467,2.59609 -2.66533,1.47746 z m 7.0541,0.13714 c -0.21829,-0.21829 -0.53478,-0.81469 -0.7033,-1.32535 -0.42919,-1.30042 -0.75529,-1.15682 -0.59535,0.26217 0.10796,0.95787 0.0538,1.19062 -0.27694,1.19062 -0.33074,0 -0.42801,-0.41795 -0.49743,-2.13745 -0.11088,-2.74651 0.0213,-3.10502 1.08751,-2.94854 1.13427,0.16648 1.49378,0.90711 0.9155,1.88606 -0.43322,0.7334 -0.42545,0.79953 0.23226,1.97631 0.68006,1.21677 0.58701,1.84544 -0.16225,1.09618 z m -0.6391,-3.37829 c 0.17608,-0.4788 -0.0553,-0.99219 -0.44724,-0.99219 -0.21801,0 -0.29321,0.235 -0.21169,0.66146 0.1354,0.70829 0.46015,0.87129 0.65893,0.33073 z m 4.00086,3.30141 c -0.87527,-0.70899 -1.15545,-1.4797 -1.15545,-3.17839 0,-2.96173 0.67963,-3.7753 2.81855,-3.37404 2.12741,0.39911 2.8717,1.55015 2.68363,4.15022 -0.0988,1.36639 -0.23389,1.72792 -0.84035,2.24957 -0.88605,0.76215 -2.65867,0.83931 -3.50638,0.15264 z m 2.44157,-0.6176 c 0.69262,-0.76589 0.64526,-4.40913 -0.0641,-4.9278 -0.62904,-0.45996 -1.29337,-0.42082 -1.82152,0.10733 -0.94677,0.94677 -0.0966,5.37781 1.03178,5.37781 0.19237,0 0.57658,-0.2508 0.8538,-0.55734 z m 4.10738,0.72756 c -0.2084,-0.25111 -0.29104,-1.18665 -0.2406,-2.72375 l 0.0768,-2.34126 0.79375,0.0902 c 0.43656,0.0496 1.1807,0.32722 1.65364,0.61689 0.78005,0.47775 0.8599,0.64614 0.8599,1.81325 0,0.96332 -0.14958,1.45153 -0.59531,1.9431 -0.74182,0.81808 -2.10201,1.13918 -2.54821,0.60154 z m 1.72943,-0.55947 c 1.36363,-0.95513 0.64984,-3.84409 -0.94977,-3.84409 -0.30396,0 -0.38705,2.62366 -0.11521,3.63803 0.18762,0.70011 0.32239,0.72619 1.06498,0.20606 z m 3.436,-0.33835 c -0.20748,-1.25521 -0.20874,-2.67212 -0.003,-3.43959 0.18951,-0.70717 0.83859,-0.78696 1.07628,-0.13229 0.0925,0.25466 0.57044,0.9159 1.06217,1.46941 0.49174,0.55352 1.02678,1.29766 1.18898,1.65365 0.48592,1.06647 0.73682,0.74252 0.77943,-1.0064 0.0578,-2.37245 0.0613,-2.39306 0.42385,-2.51391 0.37867,-0.12623 0.4163,0.61467 0.15714,3.09413 -0.27606,2.64121 -0.72016,2.52388 -2.94724,-0.77865 l -0.98134,-1.45521 -0.0773,2.05052 c -0.0823,2.18466 -0.40869,2.69338 -0.67895,1.05834 z m 6.70303,0 c 0.26115,-0.54571 0.68935,-1.67852 0.95155,-2.51736 0.55223,-1.76677 0.98989,-2.24578 2.24712,-2.45943 0.859138,-0.146 0.880678,-0.13174 0.39509,0.26144 -0.28247,0.22873 -0.66943,0.41586 -0.8599,0.41586 -0.19046,0 -0.34454,0.20836 -0.34239,0.46302 0.004,0.4363 0.63749,3.35558 0.94782,4.36563 0.0936,0.30454 2.7e-4,0.46302 -0.27244,0.46302 -0.23832,0 -0.41471,-0.22507 -0.41471,-0.52916 0,-0.431 -0.17639,-0.52917 -0.95081,-0.52917 -0.7283,0 -0.9832,0.12384 -1.08919,0.52917 -0.0761,0.29104 -0.35181,0.52916 -0.61268,0.52916 -0.45591,0 -0.45589,-0.0385 5.3e-4,-0.99218 z m 2.28834,-1.15756 c -0.0909,-0.45475 -0.16536,-0.99053 -0.16536,-1.19062 0,-0.66633 -0.41874,-0.37521 -0.7406,0.51487 -0.45914,1.26972 -0.40075,1.50257 0.37679,1.50257 0.63677,0 0.68078,-0.0688 0.52917,-0.82682 z m -30.59245,-3.11604 c 0,-0.24975 1.40719,-0.81964 2.02386,-0.81964 0.72786,0 0.32504,0.4551 -0.66549,0.75187 -1.23147,0.36896 -1.35837,0.37529 -1.35837,0.0678 z"
       id="path24" />
  </g>
</svg>
